<svg width="512" height="250" xmlns="http://www.w3.org/2000/svg">
 <g>
  <title>background</title>
  <rect fill="none" id="canvas_background" height="252" width="514" y="-1" x="-1"/>
 </g>

 <g>
  <title>Layer 1</title>
  <path id="svg_1" fill="#003f7f" d="m69.411,13.308c-3.046,-3.553 -7.492,-5.598 -12.172,-5.598l-36.582,0c-5.755,0 -9.635,5.884 -7.368,11.174l43.308,101.052l104.21,0l-91.396,-106.628z"/>
  <path id="svg_2" fill="#bacff4" d="m66.382,81.312l-31.543,-73.602l-14.182,0c-5.755,0 -9.635,5.884 -7.368,11.174l43.308,101.052l104.21,0l-20.613,-24.048l-51.708,0c-9.62,-0.001 -18.314,-5.734 -22.104,-14.576z"/>
  <path id="svg_3" fill="#003f7d" d="m401.29,160.016l-17.624,-22.03c-9.127,-11.409 -22.946,-18.051 -37.557,-18.051l-323.708,0c-7.677,0 -13.901,6.223 -13.901,13.901c0,6.045 3.907,11.397 9.664,13.24l190.739,61.036l0,16.032l212.545,0c12.756,0 24.99,-5.067 34.01,-14.087l17.977,-17.977l0,-32.065l-72.145,0l0,0.001z"/>
  <path id="svg_4" fill="#003f7d" d="m465.419,200.097l-8.016,0l-192.387,0l-239.542,-75.931c-0.752,-0.24 -4.136,-1.215 -9.309,-2.69c-4.53,2.292 -7.665,6.938 -7.665,12.361c0,6.045 3.906,11.397 9.664,13.24l190.739,61.036l0,16.032l212.545,0c12.756,0 24.99,-5.067 34.01,-14.087l9.961,-9.961z"/>
  <path id="svg_7" fill="#003f7f" d="m321.129,239.177l-128.258,0c-8.854,0 -16.032,-7.178 -16.032,-16.032c0,-8.854 7.178,-16.032 16.032,-16.032l128.258,0c8.854,0 16.032,7.178 16.032,16.032c0,8.855 -7.178,16.032 -16.032,16.032z"/>
  <path id="svg_8" fill="#bacff4" d="m69.412,13.308c-3.046,-3.553 -7.492,-5.598 -12.172,-5.598l-36.583,0c-5.755,0 -9.635,5.884 -7.368,11.174l8.953,20.891l69.855,0l-22.685,-26.467z"/>
  <path id="svg_9" fill="#bacff4" d="m13.289,18.884l8.953,20.891l26.339,0l-13.742,-32.065l-14.182,0c-5.755,0 -9.635,5.884 -7.368,11.174z"/>
  <path id="svg_10" fill="#003f7d" d="m471.435,192.081l16.032,0c8.854,0 16.032,-7.178 16.032,-16.032c0,-8.854 -7.178,-16.032 -16.032,-16.032l-16.032,0l0,32.064z"/>
  <path id="svg_12" fill="#c3ddff" d="m346.109,119.935l-137.206,0l0,21.646c0,6.336 3.731,12.077 9.521,14.65l43.969,19.542c12.3,5.467 25.609,8.291 39.069,8.291l83.796,0c8.854,0 16.032,-7.178 16.032,-16.032l0,-8.016l-17.623,-22.03c-9.128,-11.409 -22.947,-18.051 -37.558,-18.051z"/>
  <path id="svg_13" fill="#a4ccff" d="m262.394,175.773c12.3,5.467 25.609,8.291 39.069,8.291l83.796,0c8.854,0 16.032,-7.178 16.032,-16.032l0,-8.016l-174.351,0l35.454,15.757z"/>
 </g>
</svg>